<svg
  xmlns="http://www.w3.org/2000/svg"
  id="_Layer_2"
  data-name="Layer 2"
  viewBox="0 0 465.17 249.38"
>
  <defs>
    <style>
      .cls-2 {
        fill: #fff;
      }
      .cls-3 {
        fill: #d6d8f4;
      }
    </style>
  </defs>
  <g id="_Layer_1-2" data-name="Layer 1">
    <rect width="465.17" height="249.38" rx="17.01" ry="17.01" style="fill: #4b3dd4" />
    <path
      d="M328.74 61.48c0 9.42-7.64 17.06-17.06 17.06s-17.06-7.64-17.06-17.06 7.64-17.06 17.06-17.06 17.06 7.64 17.06 17.06Z"
      style="fill: #f7d756"
    />
    <path
      d="M154.26 114.65c-.67 1.94-1.34 3.6-2.03 4.98-3.2 6.43-7.89 11.52-14.08 15.25-3.29 1.98-7.22 3.62-11.07 4.65a61.2 61.2 0 0 1-12.11 1.98c-6.78.4-13.55.37-20.21-1.42-3.75-1.01-6.94-2.67-9.55-4.96a27.13 27.13 0 0 1-6.42-8.37c-.47-.94-.9-1.89-1.31-2.86-.12-.28-.33-.39-.63-.33l-.21.04c-.3.06-.41.24-.31.54.8 2.5 1.67 4.69 2.63 6.56 1.4 2.73 3.29 5.29 5.66 7.66 2.01 2.01 4.36 3.52 7.03 4.54.27.1.45.36.45.65v27.08c0 .11-.08.2-.2.2H58.12c-.11 0-.2-.1-.2-.21V51.5c0-.18.09-.27.27-.27 14.27.07 28.79.09 43.56.04 4.11-.01 7.72.07 10.83.25 6.63.39 12.89 1.66 18.78 3.82 3.47 1.27 6.89 3.13 10.26 5.57 5.49 3.98 9.71 9.89 12.11 16.16 1.79 4.67 2.83 9.71 3.1 15.11.3 5.85.03 11.85-1.16 17.42-.35 1.61-.82 3.29-1.42 5.04m-31.76-21.86c-.34-1.89-1.13-3.67-2.38-5.34-.96-1.28-2.18-2.33-3.67-3.13-2.98-1.61-6.73-2.32-10.01-2.35-5.09-.03-9.81-.03-14.15 0a.2.2 0 0 0-.2.2l.04 28.72c0 .09.07.15.15.15 4.16-.01 8.24-.01 12.26 0 2.44 0 4.91-.11 7.29-.61 8.97-1.87 12.19-9.18 10.68-17.64ZM181.56 113.3l.65-.04c.27-.02.43-.16.47-.43.57-3.74 1.53-7.57 2.88-11.5.77-2.24 1.75-4.45 2.94-6.61 1.16-2.11 2.47-3.93 3.93-5.48 5.15-5.46 12.1-7.17 19.42-6.03 5.93.92 10.82 4.43 14.64 9.15.12.15.34.17.49.04 6.67-5.77 14.36-8.93 23.08-9.47.81-.05 2.2-.05 4.15 0 3.52.08 6.79.58 10.26 1.52 1.88.51 3.54 1.14 4.97 1.88 4.55 2.36 8.04 5.87 10.49 10.54.94 1.79 1.69 3.84 2.27 6.16.56 2.26.94 4.39 1.13 6.39.14 1.91.21 3.85.22 5.81.03 5.27.02 23.73-.01 55.4 0 .06-.05.11-.11.11l-32.13.02c-.11 0-.2-.09-.2-.19v-53.51c0-1.51-.56-3.67-1.85-4.72-1.44-1.18-3.05-1.55-4.83-1.13-2.65.63-3.89 3.14-3.89 5.67-.01 19.69-.01 37.61 0 53.75 0 .07-.06.12-.12.12h-32.2c-.09.01-.14-.03-.14-.13v-52.7c0-1.41-.21-3.26-.96-4.44-1.2-1.89-2.97-2.68-5.33-2.37-2.99.4-4.28 3.18-4.28 5.87v53.56c0 .14-.07.21-.21.21h-32.12c-.08 0-.14-.06-.14-.14V85.7c0-.15.12-.28.27-.28h24.26c.11-.01.15.04.1.14-1.25 2.9-2.69 5.77-3.78 8.78a93.542 93.542 0 0 0-3.61 12.73 67.66 67.66 0 0 0-.98 5.95c-.02.2.06.29.27.28Z"
      class="cls-2"
    />
    <path
      d="M407.07 140.02c.38 4.21.17 8.19-.63 11.94-1.16 5.47-3.77 9.97-7.82 13.53-3.84 3.37-9.17 5.63-14.05 6.64-4.01.83-7.99 1.24-11.93 1.23-9.42-.04-19.05-.46-27.93-3.51-1.4-.48-2.79-.93-4.18-1.36a.312.312 0 0 1-.22-.3v-31.13c0-.25.1-.3.29-.14 1.74 1.46 3.78 2.86 5.81 3.88 6.8 3.43 14.17 5.41 21.82 6.09 1.99.18 3.99.2 6 .05 1.54-.11 2.91-.39 4.12-.83.67-.25 1.43-.92 1.55-1.65.27-1.56-2.06-2.57-3.31-2.99-1.98-.67-3.86-1.18-5.64-1.53-5.32-1.05-10.11-1.98-15.16-3.81-7.48-2.72-13.76-7.71-16.09-15.58-2.27-7.67-2.05-16.47 2.1-23.55.88-1.49 2.01-2.95 3.39-4.36 3.49-3.57 7.84-6.12 13.04-7.66 3.29-.97 6.41-1.64 9.83-1.89 5.43-.39 10.71-.27 15.84.35 6.98.85 13.95 3.02 20.55 5.81.16.07.27.23.27.41l-.02 29.18s-.04.05-.07.03a27.369 27.369 0 0 0-6.27-4.63c-5-2.7-10.2-4.53-15.61-5.46-3.95-.69-7.6-.78-11.66-.59-1.12.06-2.14.25-3.04.58-.82.3-1.24.82-1.27 1.57-.06 1.68 4.23 2.91 5.48 3.22 2.8.7 5.64 1.4 8.52 2.12 4.31 1.07 7.91 2.18 11.68 3.86 1.41.63 2.93 1.49 4.55 2.58 4.69 3.16 7.75 7.49 9.18 13 .44 1.71.74 3.34.88 4.88ZM327.44 170.65a52.38 52.38 0 0 1-1.52 7.98c-1.41 5.18-3.52 9.65-6.32 13.41-2.28 3.07-5.4 5.88-8.88 7.92-4.96 2.89-10.64 4.39-16.39 4.8-1.38.1-2.8.16-4.25.19-.07 0-.12-.03-.13-.1l-6.08-28.92c-.02-.1.06-.2.17-.21 1.37-.05 2.77-.32 4.17-.83 1.19-.43 2.31-1.1 3.39-2.03 2.6-2.24 3.9-5.31 3.9-9.21-.02-23.75-.01-46.63.02-68.65 0-3.25 0-6.38-.01-9.38 0-.1.09-.19.19-.19l31.91-.03c.18 0 .27.09.27.27v76.37c0 3.08-.15 5.95-.45 8.6Z"
      class="cls-3"
    />
  </g>
</svg>
